<svg width="27" height="38" viewBox="0 0 27 38" fill="none" xmlns="http://www.w3.org/2000/svg">
<path d="M13.0852 13.1207C16.3461 13.1207 18.9895 10.4772 18.9895 7.21634C18.9895 3.95547 16.3461 1.31201 13.0852 1.31201C9.82434 1.31201 7.18088 3.95547 7.18088 7.21634C7.18088 10.4772 9.82434 13.1207 13.0852 13.1207Z" stroke="#4CAF50" stroke-width="2.62415" stroke-linecap="round" stroke-linejoin="round"/>
<path d="M23.9544 30.3665C21.1203 36.7327 13.0485 36.2079 13.0485 36.2079C13.0485 36.2079 4.97139 36.7117 2.14256 30.3665C1.59508 29.1459 1.31201 27.8232 1.31201 26.4854C1.31201 25.1476 1.59508 23.825 2.14256 22.6044C4.97139 16.2382 13.0485 16.763 13.0485 16.763C13.0485 16.763 21.1203 16.2592 23.9544 22.6044C24.5019 23.825 24.7849 25.1476 24.7849 26.4854C24.7849 27.8232 24.5019 29.1459 23.9544 30.3665Z" stroke="#4CAF50" stroke-width="2.62415" stroke-linecap="round" stroke-linejoin="round"/>
</svg>
