<svg width="38" height="38" viewBox="0 0 38 38" fill="none" xmlns="http://www.w3.org/2000/svg">
<path d="M13.6757 18.5379H31.0423M24.1041 18.5379V21.9441M28.6596 18.5379V23.7915M10.6422 12.7491C12.3205 12.7491 13.681 14.1096 13.681 15.7878V21.288C13.681 22.9663 12.3205 24.3268 10.6422 24.3268C8.96393 24.3268 7.60343 22.9663 7.60343 21.288V15.7878C7.60343 14.1096 8.96393 12.7491 10.6422 12.7491ZM18.9712 35.747C18.9712 35.747 31.121 36.6393 35.3826 25.4132C37.0463 20.9806 37.0463 16.0952 35.3826 11.6627C31.121 0.436556 18.9712 1.3288 18.9712 1.3288C18.9712 1.3288 6.82138 0.436556 2.55976 11.6627C0.896094 16.0952 0.896094 20.9806 2.55976 25.4132C6.82138 36.6393 18.9712 35.747 18.9712 35.747Z" stroke="#4CAF50" stroke-width="2.62415" stroke-linecap="round" stroke-linejoin="round"/>
</svg>
