<svg width="43" height="31" viewBox="0 0 43 31" fill="none" xmlns="http://www.w3.org/2000/svg">
<path d="M1.44482 22.0281V22.6925C1.44636 24.3176 2.09297 25.8757 3.24262 27.0243C4.39227 28.1729 5.95098 28.818 7.57606 28.818H35.3137C36.9388 28.818 38.4974 28.1729 39.647 27.0243C40.7967 25.8757 41.4433 24.3176 41.4448 22.6925V7.57558C41.4448 6.77042 41.2862 5.97313 40.9781 5.22926C40.67 4.48539 40.2183 3.80949 39.649 3.24016C39.0797 2.67082 38.4038 2.21915 37.6599 1.91103C36.916 1.60291 36.1189 1.44434 35.3137 1.44434H7.57606C6.77091 1.44434 5.97361 1.60291 5.22975 1.91103C4.48588 2.21915 3.80998 2.67082 3.24064 3.24016C2.67131 3.80949 2.21964 4.48539 1.91152 5.22926C1.6034 5.97313 1.44482 6.77042 1.44482 7.57558V21.9529M1.45638 8.0494H41.4275M7.06748 15.4634H10.3844M7.06748 21.2017H15.0883M25.5361 21.2017H28.8242M32.9502 21.2017H36.2382" stroke="#4CAF50" stroke-width="2.88934" stroke-linecap="round" stroke-linejoin="round"/>
</svg>
