<svg width="43" height="41" viewBox="0 0 43 41" fill="none" xmlns="http://www.w3.org/2000/svg">
<path d="M34.7763 32.0783C35.5388 31.9817 36.312 32.1353 36.9797 32.5161C37.6473 32.8969 38.1732 33.4842 38.4782 34.1896C38.8515 35.0515 38.8671 36.0264 38.5216 36.8998C38.1761 37.7733 37.4978 38.4737 36.6359 38.847C36.2088 39.0327 35.7492 39.1324 35.2836 39.1403C34.8179 39.1482 34.3553 39.0641 33.9222 38.893C33.489 38.7219 33.0939 38.467 32.7594 38.143C32.4249 37.8189 32.1576 37.4321 31.9727 37.0046C31.7661 36.5326 31.6657 36.021 31.6785 35.5059C31.6914 34.9908 31.8172 34.4848 32.0471 34.0237M16.7131 34.0351H32.07M20.0317 29.475C19.5247 28.8122 18.8742 28.2727 18.1291 27.8972C17.3839 27.5216 16.5633 27.3197 15.729 27.3065C12.4963 27.3065 9.87002 30.316 9.87002 34.0294V34.3956H13.303M41.3848 34.756C41.3833 33.1227 40.7334 31.5568 39.5779 30.4024C38.4224 29.248 36.8559 28.5996 35.2226 28.5996M20.0889 34.3956C20.2015 34.7529 20.2594 35.1252 20.2605 35.4998C20.2605 36.4397 19.8876 37.3411 19.2235 38.0062C18.5595 38.6713 17.6587 39.0457 16.7188 39.0473C15.778 39.0473 14.8757 38.6735 14.2104 38.0083C13.5452 37.343 13.1714 36.4407 13.1714 35.4998C13.1717 35.1247 13.2316 34.7519 13.3488 34.3956M37.4769 29.0267L34.4101 17.6026C34.4101 17.6026 37.2252 17.5396 36.4356 13.6604M11.0201 30.0815V23.9822C11.0155 23.7307 11.0607 23.4809 11.1529 23.2469C11.2451 23.0129 11.3826 22.7995 11.5575 22.6187C11.7323 22.438 11.9412 22.2936 12.172 22.1937C12.4028 22.0939 12.651 22.0406 12.9025 22.0368H17.5141C17.8831 22.0323 18.2485 22.1107 18.5832 22.2661C18.9179 22.4216 19.2134 22.6502 19.448 22.9351C20.0889 23.7304 24.0654 29.6123 24.0654 29.6123H29.6726C29.963 29.6076 30.2493 29.5437 30.5142 29.4245C30.779 29.3053 31.0167 29.1333 31.2127 28.9191C31.4087 28.7048 31.559 28.4528 31.6543 28.1785C31.7495 27.9042 31.7878 27.6133 31.7667 27.3236L30.3535 15.8803C30.3334 15.7036 30.3508 15.5247 30.4045 15.3552C30.4583 15.1856 30.5472 15.0293 30.6654 14.8965C30.7837 14.7637 30.9286 14.6573 31.0908 14.5843C31.253 14.5113 31.4287 14.4733 31.6065 14.4728H32.7508M29.993 11.9381H28.431M25.6446 29.6123V24.068C25.6446 22.6264 25.0719 21.2439 24.0526 20.2245C23.0332 19.2051 21.6506 18.6325 20.209 18.6325H14.9737M8.94885 39.1445H16.7131M24.8664 39.1445H34.7878M6.65447 30.8539H10.2477M1.14453 25.3954H6.31689M25.3757 7.02897C24.9396 7.43546 24.4052 7.72138 23.8251 7.85861C22.947 8.05681 22.0263 7.90221 21.2611 7.42813C20.4959 6.95404 19.9476 6.19839 19.7341 5.32392C19.5357 4.44666 19.6895 3.52659 20.1625 2.76155C20.6354 1.99652 21.3897 1.44764 22.2631 1.23295C22.7101 1.12948 23.1733 1.11668 23.6254 1.1953C24.0775 1.27392 24.5092 1.44237 24.895 1.69068C25.3354 1.96108 25.6997 2.33914 25.9535 2.78924C26.1767 3.21836 26.2682 3.75047 26.663 4.06516C27.2981 4.57439 28.2422 4.27114 28.8887 3.95073M24.1341 14.9935L22.2574 19.0387M29.5639 11.9153H28.2308C27.8518 11.9159 27.4823 11.7976 27.1742 11.5768C26.8662 11.3561 26.6354 11.0442 26.5143 10.6851C26.2624 10.1083 25.8877 9.59345 25.4163 9.17642C24.945 8.75939 24.3882 8.45025 23.7851 8.27057C22.1907 7.63613 20.4185 7.61168 18.8072 8.20191C17.4949 8.72408 16.402 9.68164 15.7118 10.914C15.2092 11.8189 14.9453 12.8369 14.9451 13.8721V18.6153H20.0317M22.5892 11.9153C22.5892 11.9153 23.4189 17.9172 30.3421 16.0234M26.56 3.97934C26.56 3.97934 22.9783 5.055 19.9801 3.0696M8.69709 12.2185H13.6864C14.0278 12.2185 14.3552 12.3541 14.5967 12.5956C14.8381 12.837 14.9737 13.1644 14.9737 13.5059V20.7495C14.9737 21.0909 14.8381 21.4183 14.5967 21.6598C14.3552 21.9012 14.0278 22.0368 13.6864 22.0368H5.01808C4.67665 22.0368 4.3492 21.9012 4.10777 21.6598C3.86635 21.4183 3.73071 21.0909 3.73071 20.7495V17.1677C3.73525 15.8535 4.2605 14.5947 5.19139 13.667C6.12227 12.7394 7.3829 12.2185 8.69709 12.2185Z" stroke="#4CAF50" stroke-width="2.28866" stroke-linecap="round" stroke-linejoin="round"/>
</svg>
