<svg width="38" height="51" viewBox="0 0 38 51" fill="none" xmlns="http://www.w3.org/2000/svg">
<path d="M36.1838 37.4476C36.0294 37.0965 35.7483 36.8178 35.3978 36.6683C33.0454 35.5188 31.3673 32.3731 31.3598 28.6073C31.3598 25.3103 32.6783 22.4519 34.6186 21.0453C34.7842 20.9218 34.9228 20.7653 35.0258 20.5853C35.1287 20.4053 35.1938 20.2059 35.217 19.9994C35.2402 19.793 35.221 19.5839 35.1606 19.3852C35.1002 19.1866 34.9999 19.0026 34.8659 18.8448C32.7383 16.3948 29.7342 14.7538 26.4903 15.1773C24.4901 15.442 22.782 16.8712 20.7442 17.0905C19.2384 17.2493 18.0848 16.6292 16.7738 16.0469C15.5372 15.4612 14.1937 15.1407 12.8282 15.1056C11.4627 15.0704 10.1048 15.3214 8.84023 15.8428C-1.9626 20.4102 0.996514 35.723 5.9784 43.5647C7.97116 46.7483 11.5596 49.8487 15.4628 47.8674C17.2008 46.9978 18.9014 45.4023 20.984 45.9543C23.8833 46.7332 25.8386 49.6369 29.03 48.0792C33.2327 46.0148 35.3903 41.0542 36.2293 38.5587C36.3545 38.1959 36.3382 37.7987 36.1838 37.4476Z" stroke="#E95322" stroke-width="2.98" stroke-linecap="round" stroke-linejoin="round"/>
<path d="M19.7329 11.4568C19.7329 11.4568 17.2232 1.95151 26.4753 1.49023C26.4978 1.49023 29.1198 9.58904 19.7329 11.4568Z" stroke="#E95322" stroke-width="2.98" stroke-linecap="round" stroke-linejoin="round"/>
</svg>
