<svg width="43" height="31" viewBox="0 0 43 31" fill="none" xmlns="http://www.w3.org/2000/svg">
<path d="M1.44446 22.0254V22.6898C1.44599 24.3147 2.09252 25.8726 3.24202 27.021C4.39152 28.1694 5.95002 28.8145 7.5749 28.8145H35.309C36.9338 28.8145 38.4922 28.1694 39.6417 27.021C40.7912 25.8726 41.4377 24.3147 41.4393 22.6898V7.57478C41.4393 6.76973 41.2807 5.97254 40.9726 5.22877C40.6645 4.48499 40.2129 3.80918 39.6437 3.23992C39.0744 2.67066 38.3986 2.21905 37.6548 1.91097C36.9111 1.60289 36.114 1.44434 35.309 1.44434H7.5749C6.76985 1.44434 5.97266 1.60289 5.22889 1.91097C4.48512 2.21905 3.8093 2.67066 3.24005 3.23992C2.67079 3.80918 2.21917 4.48499 1.91109 5.22877C1.60301 5.97254 1.44446 6.76973 1.44446 7.57478V21.9502M1.45601 8.04854H41.4219M7.06638 15.4616H10.3829M7.06638 21.1991H15.0861M25.5326 21.1991H28.8203M32.9457 21.1991H36.2334" stroke="#E95322" stroke-width="2.88896" stroke-linecap="round" stroke-linejoin="round"/>
</svg>
