<svg width="325" height="195" viewBox="0 0 325 195" fill="none" xmlns="http://www.w3.org/2000/svg">
<rect width="324.326" height="195" rx="16" fill="#F3FFCF"/>
<mask id="mask0_4279_2898" style="mask-type:alpha" maskUnits="userSpaceOnUse" x="0" y="0" width="325" height="195">
<rect x="0.010376" width="324.326" height="194.814" rx="16" fill="#F3FFCF"/>
</mask>
<g mask="url(#mask0_4279_2898)">
<path d="M198.673 -4.38747L-14.8885 107.205L-4.10551 -134.782L198.673 -4.38747Z" fill="#4CAF50"/>
<path d="M331.715 80.9506L128.848 -49.3054L342.334 -161.044L331.715 80.9506Z" fill="#F3E9B5"/>
</g>
<path d="M305.936 142.461C307.165 142.461 308.161 143.313 308.161 144.365L308.161 166.827C308.161 167.878 307.165 168.73 305.936 168.73H280.074C278.846 168.73 277.85 167.878 277.85 166.827L277.85 144.365C277.85 143.313 278.846 142.461 280.074 142.461L305.936 142.461Z" fill="#4CAF50"/>
<path d="M298.856 142.461L298.856 168.73M277.85 149.576H284.028C285.393 149.576 286.499 150.556 286.499 151.765V168.73M298.856 149.028H308.124M298.856 155.596H308.124M298.856 162.163H308.124M277.85 162.163H286.499M277.85 156.69H286.499M277.85 144.365L277.85 166.827C277.85 167.878 278.846 168.73 280.074 168.73H305.936C307.165 168.73 308.161 167.878 308.161 166.827L308.161 144.365C308.161 143.313 307.165 142.461 305.936 142.461L280.074 142.461C278.846 142.461 277.85 143.313 277.85 144.365Z" stroke="#391713" stroke-linecap="round"/>
<path d="M255.622 18.1867C255.622 17.0707 256.466 16.166 257.508 16.166L305.264 16.166C306.306 16.166 307.15 17.0707 307.15 18.1867V26.2696C307.15 27.3857 306.306 28.2904 305.264 28.2904H257.508C256.466 28.2904 255.622 27.3857 255.622 26.2696V18.1867Z" stroke="#391713" stroke-width="2" stroke-linecap="round"/>
</svg>
