<svg width="42" height="41" viewBox="0 0 42 41" fill="none" xmlns="http://www.w3.org/2000/svg">
<rect y="0.325195" width="41.277" height="40.3" rx="15" fill="#F8F8F8"/>
<path d="M28.0982 19.8434C28.3186 18.0629 27.8064 16.2697 26.674 14.8576C25.5415 13.4454 23.8815 12.5298 22.0582 12.3115M33.3758 20.3972C33.5718 18.8473 33.4529 17.2748 33.0258 15.7698C32.5988 14.2648 31.872 12.8568 30.8869 11.6264C29.9019 10.396 28.678 9.36725 27.2854 8.59912C25.8927 7.831 24.3585 7.33851 22.7706 7.1499M26.2739 24.1543C26.0254 23.9509 25.745 23.7878 25.4435 23.6713C23.7599 23.0643 22.3804 24.3891 20.8103 24.1144C19.1358 23.8087 17.729 22.1738 16.9394 20.8048C16.4823 20.0893 16.3202 19.2312 16.4856 18.4035C16.9939 16.4408 18.5594 15.6167 17.9559 13.3748C17.5021 11.7355 15.7368 9.31649 13.9761 8.86901C10.8268 8.06708 9.14324 11.0089 8.47162 13.5387C6.10736 22.3997 12.7237 31.8279 21.9901 33.033C24.7129 33.3918 28.856 33.0994 29.0874 29.6259C29.219 27.6322 28.0301 25.767 26.6052 24.4688L26.2739 24.1543Z" stroke="#E95322" stroke-width="2" stroke-linecap="round" stroke-linejoin="round"/>
</svg>
