<svg width="42" height="41" viewBox="0 0 42 41" fill="none" xmlns="http://www.w3.org/2000/svg">
<rect y="0.325195" width="41.277" height="40.3" rx="15" fill="#F8F8F8"/>
<path d="M29.5093 12.0888C29.8068 12.2113 30.0977 12.3489 30.3807 12.5008C30.4974 12.5615 30.6105 12.6284 30.7198 12.701C33.2358 14.2411 33.8747 17.2018 33.9535 19.7429C33.9535 20.1279 33.9535 20.5129 33.9535 20.8979V32.5022L28.827 29.6107H25.7077C24.6608 29.7324 23.6073 29.7929 22.5529 29.7917C21.4236 29.8008 20.295 29.7403 19.1735 29.6107C16.3854 29.2796 13.6525 28.4249 12.2526 26.4536M28.9295 11.3226C28.3294 10.5173 27.5466 9.85845 26.6424 9.39757C24.9553 8.56772 23.1162 8.07303 21.2318 7.94221C20.3367 7.85751 19.347 7.80365 18.3178 7.7998C15.8097 7.7998 13.0927 8.06931 10.9159 9.23589C10.7992 9.29665 10.6859 9.36348 10.5766 9.43611C8.06067 10.9762 7.42194 13.9369 7.34308 16.478C7.34308 16.863 7.32324 17.248 7.32324 17.633V29.2411L12.4497 26.3497C12.4497 26.3497 17.7143 26.5268 18.7396 26.5306C19.8689 26.5397 20.9976 26.4793 22.1191 26.3497C25.7471 25.9223 29.2607 24.5979 29.9311 21.0982C30.1893 19.7406 30.3213 18.363 30.3255 16.9823C30.3255 14.8994 29.9784 12.778 28.9295 11.3226Z" stroke="#E95322" stroke-width="2" stroke-linecap="round" stroke-linejoin="round"/>
</svg>
