<svg width="33" height="33" viewBox="0 0 33 33" fill="none" xmlns="http://www.w3.org/2000/svg">
<rect y="0.258301" width="32.7758" height="32" rx="15" fill="#F8F8F8"/>
<path d="M15.9098 15.9998H5.81608M8.40741 18.6562L6.41143 17.1775C6.226 17.0395 6.07566 16.8615 5.9722 16.6575C5.86874 16.4535 5.81494 16.229 5.81494 16.0013C5.81494 15.7737 5.86874 15.5491 5.9722 15.3451C6.07566 15.1411 6.226 14.9632 6.41143 14.8252L8.40741 13.3434M22.4867 9.50926V22.4904M12.2418 20.12C14.0927 26.8455 19.3155 26.3124 19.3155 26.3124C19.3155 26.3124 24.5598 26.8455 26.3891 20.12C27.1079 17.418 27.1079 14.5815 26.3891 11.8796C24.5536 5.15408 19.3155 5.68723 19.3155 5.68723C19.3155 5.68723 14.0711 5.15408 12.2418 11.8796" stroke="#E95322" stroke-width="2" stroke-linecap="round" stroke-linejoin="round"/>
</svg>
