<svg width="42" height="41" viewBox="0 0 42 41" fill="none" xmlns="http://www.w3.org/2000/svg">
<rect y="0.325195" width="41.277" height="40.3" rx="15" fill="#F8F8F8"/>
<path d="M20.9652 15.9456C23.453 15.9456 25.4697 13.9766 25.4697 11.5477C25.4697 9.11888 23.453 7.1499 20.9652 7.1499C18.4775 7.1499 16.4608 9.11888 16.4608 11.5477C16.4608 13.9766 18.4775 15.9456 20.9652 15.9456Z" stroke="#E95322" stroke-width="2" stroke-linecap="round" stroke-linejoin="round"/>
<path d="M29.2574 28.7911C27.0952 33.5329 20.9373 33.1421 20.9373 33.1421C20.9373 33.1421 14.7752 33.5173 12.617 28.7911C12.1994 27.8819 11.9834 26.8967 11.9834 25.9003C11.9834 24.9038 12.1994 23.9187 12.617 23.0095C14.7752 18.2677 20.9373 18.6585 20.9373 18.6585C20.9373 18.6585 27.0952 18.2833 29.2574 23.0095C29.6751 23.9187 29.891 24.9038 29.891 25.9003C29.891 26.8967 29.6751 27.8819 29.2574 28.7911Z" stroke="#E95322" stroke-width="2" stroke-linecap="round" stroke-linejoin="round"/>
</svg>
