<svg width="42" height="41" viewBox="0 0 42 41" fill="none" xmlns="http://www.w3.org/2000/svg">
<rect y="0.325195" width="41.277" height="40.3" rx="15" fill="#F8F8F8"/>
<path d="M15.9239 17.8562V11.9188C15.9277 10.656 16.4429 9.44578 17.357 8.5524C18.2712 7.65901 19.5102 7.15485 20.8036 7.1499C22.0978 7.15362 23.3379 7.65727 24.2531 8.55079C25.1683 9.44431 25.6841 10.6551 25.6879 11.9188V17.8562M32.2645 28.3795L30.7935 17.7436C30.6542 16.8667 30.1941 16.0687 29.4984 15.4974C28.8028 14.9261 27.9188 14.6202 27.01 14.6364H14.6018C13.693 14.6202 12.809 14.9261 12.1133 15.4974C11.4177 16.0687 10.9577 16.8667 10.8184 17.7436L9.34729 28.3795C9.2784 28.9898 9.34427 29.6075 9.54036 30.191C9.73645 30.7744 10.0582 31.3101 10.4841 31.7619C10.91 32.2137 11.4301 32.5712 12.0094 32.8103C12.5886 33.0495 13.2136 33.1648 13.8423 33.1484H27.784C28.4115 33.1627 29.0349 33.046 29.6124 32.806C30.1899 32.5659 30.7082 32.208 31.1325 31.7564C31.5568 31.3048 31.8772 30.7699 32.0725 30.1875C32.2677 29.6051 32.3332 28.9886 32.2645 28.3795Z" stroke="#E95322" stroke-width="2" stroke-linecap="round" stroke-linejoin="round"/>
</svg>
