<svg width="42" height="41" viewBox="0 0 42 41" fill="none" xmlns="http://www.w3.org/2000/svg">
<rect y="0.325195" width="41.277" height="40.3" rx="15" fill="#F8F8F8"/>
<path d="M7.32324 24.4292V24.8611C7.32426 25.9174 7.75475 26.9302 8.52014 27.6768C9.28553 28.4234 10.3232 28.8427 11.4052 28.8427H29.8717C30.9536 28.8427 31.9913 28.4234 32.7566 27.6768C33.522 26.9302 33.9525 25.9174 33.9535 24.8611V15.0351C33.9535 14.5118 33.848 13.9935 33.6428 13.51C33.4377 13.0265 33.137 12.5872 32.758 12.2171C32.3789 11.847 31.9289 11.5534 31.4337 11.3532C30.9385 11.1529 30.4078 11.0498 29.8717 11.0498H11.4052C10.8691 11.0498 10.3383 11.1529 9.84308 11.3532C9.34785 11.5534 8.89786 11.847 8.51882 12.2171C8.13979 12.5872 7.83908 13.0265 7.63395 13.51C7.42882 13.9935 7.32324 14.5118 7.32324 15.0351V24.3803M7.33094 15.3431H33.942M11.0666 20.1622H13.2749M11.0666 23.8921H16.4065M23.3622 23.8921H25.5513M28.2982 23.8921H30.4872" stroke="#E95322" stroke-width="2" stroke-linecap="round" stroke-linejoin="round"/>
</svg>
