<svg width="42" height="41" viewBox="0 0 42 41" fill="none" xmlns="http://www.w3.org/2000/svg">
<rect y="0.325195" width="41.277" height="40.3" rx="15" fill="#F8F8F8"/>
<path d="M29.6335 21.541L31.3784 22.5058C32.0136 22.8583 32.477 23.4382 32.6671 24.1181C32.8571 24.7981 32.7583 25.5225 32.3922 26.1327L31.7742 27.1594C31.5923 27.4612 31.3502 27.7256 31.0618 27.9376C30.7733 28.1496 30.4442 28.3051 30.0931 28.395C29.742 28.485 29.3759 28.5077 29.0157 28.4619C28.6555 28.4161 28.3082 28.3027 27.9937 28.1281L26.2568 27.1672C25.4979 27.7526 24.6491 28.2219 23.7405 28.5583V30.4957C23.7405 31.1997 23.449 31.8747 22.9301 32.3725C22.4113 32.8702 21.7075 33.1499 20.9737 33.1499H19.7378C19.004 33.1499 18.3002 32.8702 17.7814 32.3725C17.2625 31.8747 16.971 31.1997 16.971 30.4957V28.5583C16.0624 28.2219 15.2136 27.7526 14.4547 27.1672L12.8107 28.0778C12.4838 28.2591 12.1229 28.3766 11.7485 28.4239C11.3742 28.4711 10.9938 28.4471 10.6291 28.3532C10.2645 28.2593 9.92271 28.0972 9.62338 27.8764C9.32406 27.6556 9.07305 27.3804 8.88474 27.0665L8.37581 26.2218C8.18664 25.9081 8.06377 25.5617 8.01416 25.2024C7.96456 24.8432 7.98922 24.4781 8.08674 24.128C8.18426 23.7779 8.35271 23.4496 8.5825 23.1619C8.8123 22.8743 9.0989 22.6329 9.42597 22.4516L11.0739 21.541C10.9124 20.6201 10.9124 19.6798 11.0739 18.7589L9.42597 17.8482C9.0989 17.6669 8.8123 17.4255 8.5825 17.1379C8.35271 16.8502 8.18426 16.522 8.08674 16.1719C7.98922 15.8218 7.96456 15.4566 8.01416 15.0974C8.06377 14.7381 8.18664 14.3917 8.37581 14.078L8.88474 13.2334C9.07305 12.9194 9.32406 12.6442 9.62338 12.4234C9.92271 12.2026 10.2645 12.0405 10.6291 11.9466C10.9938 11.8527 11.3742 11.8287 11.7485 11.8759C12.1229 11.9232 12.4838 12.0408 12.8107 12.222L14.4547 13.1326C15.2136 12.5472 16.0624 12.0779 16.971 11.7415V9.8041C16.971 9.10015 17.2625 8.4251 17.7814 7.92733C18.3002 7.42956 19.004 7.1499 19.7378 7.1499H20.9737C21.7075 7.1499 22.4113 7.42956 22.9301 7.92733C23.449 8.4251 23.7405 9.10015 23.7405 9.8041V11.7415C24.6491 12.0779 25.4979 12.5472 26.2568 13.1326L27.9937 12.1717C28.3082 11.9971 28.6555 11.8837 29.0157 11.8379C29.3759 11.7921 29.742 11.8148 30.0931 11.9048C30.4442 11.9947 30.7733 12.1502 31.0618 12.3622C31.3502 12.5742 31.5923 12.8386 31.7742 13.1404L32.3922 14.1672C32.7583 14.7773 32.8571 15.5018 32.6671 16.1818C32.477 16.8617 32.0136 17.4415 31.3784 17.794L29.6335 18.7589C29.8005 19.6793 29.8005 20.6205 29.6335 21.541Z" stroke="#E95322" stroke-width="2" stroke-linecap="round" stroke-linejoin="round"/>
</svg>
