<svg width="18" height="16" viewBox="0 0 18 16" fill="none" xmlns="http://www.w3.org/2000/svg">
<path d="M0.686874 11.4529H5.48394M12.4486 11.4529H17.243M14.6162 5.40794H13.8421M2.92008 3.56529V1.93505M17.1171 6.31135L17.0961 6.29344C16.9364 5.69085 16.65 5.12719 16.2552 4.63819C15.8604 4.14918 15.3657 3.74548 14.8025 3.45268C14.1955 3.15403 13.5529 2.92968 12.8895 2.78472L12.858 2.57486C12.8489 2.32379 12.7983 2.07579 12.7084 1.84036C12.6164 1.61186 12.4751 1.40535 12.2939 1.23489C12.1128 1.06442 11.8961 0.934002 11.6587 0.852492C10.8518 0.58938 10.0027 0.47145 9.1526 0.504439H8.80619C7.95609 0.47145 7.10694 0.58938 6.30008 0.852492C6.06239 0.933551 5.84549 1.06381 5.6643 1.23433C5.48311 1.40485 5.34192 1.6116 5.25039 1.84036C5.16288 2.06305 5.11323 2.29818 5.10342 2.53648L5.03519 2.7924C4.38295 2.93755 3.75118 3.15926 3.15365 3.45268C2.59087 3.74599 2.0965 4.14984 1.70174 4.63877C1.30699 5.1277 1.02043 5.6911 0.860086 6.29344L0.841698 6.31135C0.586264 7.2115 0.473862 8.14452 0.508418 9.07789C0.462483 10.0612 0.58306 11.0452 0.865307 11.9903C1.50824 14.3115 4.14558 15.1638 6.80916 15.4248H6.88265L7.16605 15.4504L7.38388 15.4658H7.51772L7.76438 15.4811H7.84312L8.30236 15.499H9.6827L10.1419 15.4811H10.218L10.4804 15.4658H10.6143L10.8295 15.4504L11.1129 15.4248H11.1864C13.8526 15.1689 16.4899 14.3115 17.1302 11.9903C17.4134 11.0454 17.5348 10.0614 17.4897 9.07789C17.5103 8.14261 17.3846 7.20973 17.1171 6.31135ZM8.96628 13.0114C8.96628 13.0114 11.8897 13.2213 12.9026 10.5853C13.304 9.54516 13.304 8.3982 12.9026 7.35808C11.8765 4.72206 8.96628 4.93192 8.96628 4.93192C8.96628 4.93192 6.0429 4.72206 5.02996 7.35808C4.62856 8.3982 4.62856 9.54516 5.02996 10.5853C6.0429 13.2213 8.96628 13.0114 8.96628 13.0114ZM8.9663 10.4445C8.9663 10.4445 10.0317 10.5213 10.407 9.56159C10.5513 9.18179 10.5513 8.76414 10.407 8.38434C10.0317 7.42206 8.9663 7.49883 8.9663 7.49883C8.9663 7.49883 7.90084 7.42206 7.52557 8.38434C7.37868 8.76368 7.37868 9.18225 7.52557 9.56159C7.90084 10.5213 8.9663 10.4445 8.9663 10.4445Z" stroke="#F8F8F8" stroke-width="0.997761" stroke-linecap="round" stroke-linejoin="round"/>
</svg>
