<svg width="49" height="77" viewBox="0 0 49 77" fill="none" xmlns="http://www.w3.org/2000/svg">
<g clip-path="url(#clip0_4245_2905)">
<rect y="1" width="49" height="62" rx="24.5" fill="#F3E9B5"/>
<path d="M30.82 27.7625C31.6127 27.2447 32.5224 26.9361 33.4651 26.8655C35.0104 26.7306 36.5457 27.2185 37.7333 28.222C38.9209 29.2254 39.6637 30.6623 39.7981 32.2164C39.9151 33.5406 39.5791 34.8651 38.8459 35.9712C38.1947 36.907 37.4612 37.782 36.6543 38.5858L36.4965 38.7416M18.9852 27.7623C18.1969 27.2469 17.2926 26.9384 16.3552 26.8652C15.5897 26.7964 14.8181 26.8805 14.085 27.1124C13.3518 27.3444 12.6714 27.7197 12.0829 28.2169C11.4944 28.7141 11.0094 29.3235 10.6558 30.0098C10.3021 30.6961 10.0868 31.4459 10.0221 32.2162C9.90795 33.538 10.2379 34.8601 10.9592 35.9709C11.6394 37.1329 12.6288 38.0807 13.8159 38.7073M26.6634 20.0247C28.4101 20.3165 30.0418 21.0907 31.3763 22.2611C32.7108 23.4315 33.6956 24.952 34.2208 26.6527M15.5843 26.6827C16.0977 25.1235 16.9924 23.7193 18.1861 22.5985C19.3798 21.4776 20.8343 20.676 22.4162 20.2678M21.9023 22.8825L21.3431 23.4602M28.3714 25.0564L27.4947 25.938M15.3576 31.517L14.4961 32.3987M29.7166 32.7787L28.976 33.5236M21.7058 30.5745L20.9652 31.3194M36.8659 31.9578L36.3217 32.5051M24.4718 17.0907C23.8745 17.0907 23.3017 17.3292 22.8793 17.7539C22.457 18.1787 22.2197 18.755 22.2197 19.3557C22.2242 19.5825 22.2598 19.8075 22.3255 20.0245C22.4556 20.5036 22.7396 20.9258 23.1333 21.2255C23.527 21.5252 24.0083 21.6857 24.502 21.6816C25.0993 21.6816 25.6722 21.4428 26.0945 21.018C26.5169 20.5932 26.7541 20.0173 26.7541 19.4166C26.7623 19.1115 26.7091 18.8076 26.5977 18.5237C26.4862 18.2398 26.3189 17.9816 26.1058 17.7643C25.8926 17.5471 25.638 17.3754 25.3572 17.2596C25.0764 17.1438 24.7752 17.0865 24.4718 17.0907ZM24.4718 17.0907C24.313 16.2164 24.4352 15.3757 24.767 14.552C25.0989 13.7283 25.6571 13.0165 26.3763 12.5M36.4965 38.7416C36.3096 40.8661 35.7343 42.9421 34.7952 44.8638C34.4654 45.7247 33.9698 46.5115 33.337 47.1793C32.7041 47.8471 31.9463 48.3826 31.1072 48.7551C29.2189 49.3364 27.631 49.5 25.2729 49.5C22.9147 49.5 21.1202 49.3747 19.1363 48.7551C18.2971 48.3826 17.5394 47.8471 16.9065 47.1793C16.2736 46.5115 15.7781 45.7247 15.4483 44.8638C14.3132 42.4933 13.7291 39.8942 13.7403 37.2631C13.7531 36.9017 13.85 36.5482 14.0233 36.2314C14.1965 35.9145 14.4413 35.643 14.7379 35.4386C15.1901 35.2492 15.6804 35.1697 16.1689 35.2067C16.6574 35.2437 17.1303 35.3963 17.5493 35.6517C18.3773 36.1753 19.3371 36.4496 20.3152 36.4422C22.3104 36.1685 23.2626 33.6905 25.4543 33.9946C27.268 34.253 28.2354 36.1989 29.9887 36.4422C30.9712 36.4475 31.9353 36.1734 32.7698 35.6517C33.1841 35.3917 33.6549 35.2363 34.1419 35.1992C34.6288 35.1622 35.1175 35.2443 35.566 35.4386C35.8652 35.6403 36.1119 35.9114 36.2855 36.2288C36.4591 36.5462 36.5545 36.901 36.5636 37.2631C36.5622 37.7576 36.5397 38.2509 36.4965 38.7416Z" stroke="#4CAF50" stroke-linecap="round" stroke-linejoin="round"/>
</g>
<defs>
<clipPath id="clip0_4245_2905">
<rect width="77" height="49" fill="white" transform="translate(49 2.1286e-06) rotate(90)"/>
</clipPath>
</defs>
</svg>
