<svg width="22" height="19" viewBox="0 0 22 19" fill="none" xmlns="http://www.w3.org/2000/svg">
<path d="M11.0053 2.76839C11.0053 2.76839 10.554 3.11053 10.0871 3.72002M9.09338 6.95632C8.93927 5.5767 9.52449 4.45433 10.0871 3.72002M10.0871 3.72002C10.6288 3.01537 11.3013 2.4699 11.9891 2.0549M11.9891 2.0549C13.2001 1.32425 14.4585 0.99804 15.134 0.919632C15.9237 0.890987 16.7117 1.00879 17.4501 1.26588C18.1885 1.52296 18.8621 1.91398 19.4301 2.41532C21.8864 4.611 22.2471 8.7511 20.0269 11.1951C17.8067 13.639 14.1666 14.7219 11.9268 17.2078C11.5639 17.6033 11.2545 18.0371 11.0052 18.5C10.7571 18.0372 10.4489 17.6033 10.0871 17.2078C7.84391 14.7219 4.22654 13.663 1.98341 11.1951C-0.259729 8.72717 0.124068 4.61399 2.58037 2.41532C3.89628 0.979477 6.90596 -0.878122 11.9891 2.0549Z" stroke="white" stroke-linecap="round" stroke-linejoin="round"/>
</svg>
