<svg width="20" height="20" viewBox="0 0 20 20" fill="none" xmlns="http://www.w3.org/2000/svg">
<circle cx="10" cy="10" r="10" fill="#4CAF50"/>
<path d="M9.23062 8.46131H15.3845M9.23062 8.46131C9.23062 9.31098 8.54183 9.99977 7.69216 9.99977C6.84249 9.99977 6.1537 9.31098 6.1537 8.46131M9.23062 8.46131C9.23062 7.61164 8.54183 6.92285 7.69216 6.92285C6.84249 6.92285 6.1537 7.61164 6.1537 8.46131M4.61523 8.46131H6.1537M13.0768 12.3075H15.3845M13.0768 12.3075C13.0768 13.1571 12.388 13.8459 11.5383 13.8459C10.6886 13.8459 9.99985 13.1571 9.99985 12.3075M13.0768 12.3075C13.0768 11.4578 12.388 10.769 11.5383 10.769C10.6886 10.769 9.99985 11.4578 9.99985 12.3075M4.61523 12.3075H9.99985" stroke="#F5F5F5" stroke-linecap="round" stroke-linejoin="round"/>
</svg>
