<svg width="34" height="14" viewBox="0 0 34 14" fill="none" xmlns="http://www.w3.org/2000/svg">
<rect width="34" height="14" rx="7" fill="white"/>
<path d="M4.36033 9.248C4.38433 9.32 4.43033 9.412 4.49833 9.524C4.57033 9.636 4.66833 9.748 4.79233 9.86C4.91633 9.968 5.07233 10.06 5.26033 10.136C5.44833 10.212 5.67433 10.25 5.93833 10.25C6.47033 10.25 6.88633 10.08 7.18633 9.74C7.48633 9.396 7.63433 8.944 7.63033 8.384C7.62633 7.864 7.48833 7.462 7.21633 7.178C6.94433 6.894 6.58233 6.752 6.13033 6.752C5.85033 6.752 5.60433 6.804 5.39233 6.908C5.18433 7.008 5.01433 7.13 4.88233 7.274C4.75433 7.418 4.66433 7.554 4.61233 7.682L3.70633 7.376L4.38433 3.08H8.33233V4.004H5.27233L4.90033 6.47C4.92033 6.434 4.98833 6.37 5.10433 6.278C5.22433 6.182 5.39233 6.094 5.60833 6.014C5.82433 5.93 6.08633 5.888 6.39433 5.888C6.79433 5.888 7.16633 5.978 7.51033 6.158C7.85433 6.334 8.13233 6.604 8.34433 6.968C8.55633 7.328 8.66433 7.784 8.66833 8.336C8.66833 8.888 8.56033 9.376 8.34433 9.8C8.13233 10.22 7.82433 10.55 7.42033 10.79C7.01633 11.026 6.53433 11.144 5.97433 11.144C5.56233 11.144 5.20633 11.092 4.90633 10.988C4.61033 10.88 4.36233 10.746 4.16233 10.586C3.96233 10.426 3.80633 10.266 3.69433 10.106C3.58233 9.942 3.50433 9.804 3.46033 9.692L4.36033 9.248ZM11.0722 11.144C10.8522 11.144 10.6622 11.066 10.5022 10.91C10.3462 10.75 10.2682 10.56 10.2682 10.34C10.2682 10.112 10.3462 9.92 10.5022 9.764C10.6622 9.604 10.8522 9.524 11.0722 9.524C11.3002 9.524 11.4922 9.604 11.6482 9.764C11.8042 9.92 11.8822 10.112 11.8822 10.34C11.8822 10.56 11.8042 10.75 11.6482 10.91C11.4922 11.066 11.3002 11.144 11.0722 11.144ZM13.437 7.046C13.437 6.342 13.521 5.732 13.689 5.216C13.861 4.7 14.089 4.274 14.373 3.938C14.661 3.598 14.981 3.346 15.333 3.182C15.689 3.018 16.055 2.936 16.431 2.936C16.807 2.936 17.173 3.018 17.529 3.182C17.885 3.346 18.203 3.598 18.483 3.938C18.767 4.274 18.991 4.7 19.155 5.216C19.323 5.732 19.407 6.342 19.407 7.046C19.407 7.762 19.323 8.38 19.155 8.9C18.991 9.416 18.767 9.84 18.483 10.172C18.203 10.5 17.885 10.744 17.529 10.904C17.173 11.064 16.807 11.144 16.431 11.144C16.055 11.144 15.689 11.064 15.333 10.904C14.981 10.744 14.661 10.5 14.373 10.172C14.089 9.84 13.861 9.416 13.689 8.9C13.521 8.38 13.437 7.762 13.437 7.046ZM14.487 7.046C14.487 7.754 14.575 8.344 14.751 8.816C14.927 9.284 15.161 9.634 15.453 9.866C15.749 10.098 16.075 10.214 16.431 10.214C16.787 10.214 17.111 10.098 17.403 9.866C17.695 9.634 17.929 9.284 18.105 8.816C18.281 8.344 18.369 7.754 18.369 7.046C18.369 6.346 18.281 5.762 18.105 5.294C17.929 4.822 17.695 4.466 17.403 4.226C17.111 3.986 16.787 3.866 16.431 3.866C16.075 3.866 15.749 3.986 15.453 4.226C15.161 4.466 14.927 4.822 14.751 5.294C14.575 5.762 14.487 6.346 14.487 7.046Z" fill="#391713"/>
<path d="M28.3165 3.69411L27.3863 2.44642C27.282 2.30742 27.1483 2.19492 26.9957 2.11756C26.843 2.0402 26.6753 2 26.5054 2C26.3355 2 26.1678 2.0402 26.0152 2.11756C25.8625 2.19492 25.729 2.30742 25.6246 2.44642L24.6945 3.69411C24.5638 3.8699 24.3877 4.00365 24.1866 4.07979L22.756 4.61397C22.5927 4.67169 22.4445 4.7679 22.3231 4.895C22.2017 5.0221 22.1103 5.17664 22.0563 5.3465C22.0022 5.51637 21.9868 5.6969 22.0114 5.87395C22.036 6.051 22.0999 6.21973 22.198 6.36689L23.0537 7.67244C23.1714 7.85618 23.2359 8.071 23.2397 8.2915L23.2881 9.86701C23.2916 10.0454 23.335 10.2206 23.4148 10.3788C23.4945 10.537 23.6084 10.6738 23.7477 10.7788C23.8869 10.8837 24.0477 10.9539 24.2174 10.9837C24.3871 11.0136 24.5612 11.0023 24.7261 10.9508L26.1883 10.5111C26.393 10.449 26.6105 10.449 26.8152 10.5111L28.2774 10.9508C28.4423 11.0023 28.6164 11.0136 28.7861 10.9837C28.9558 10.9539 29.1166 10.8837 29.2558 10.7788C29.3951 10.6738 29.509 10.537 29.5887 10.3788C29.6684 10.2206 29.7119 10.0454 29.7154 9.86701L29.7638 8.2915C29.7688 8.0712 29.8332 7.85673 29.9498 7.67244L30.8055 6.36689C30.9019 6.2198 30.9646 6.05183 30.9888 5.87579C31.0129 5.69975 30.998 5.52034 30.9451 5.35121C30.8921 5.18208 30.8026 5.02771 30.6833 4.89994C30.564 4.77217 30.4181 4.67436 30.2567 4.61397L28.8243 4.07979C28.6233 4.00365 28.4472 3.8699 28.3165 3.69411Z" fill="#F4BA1B"/>
</svg>
