<svg width="49" height="79" viewBox="0 0 49 79" fill="none" xmlns="http://www.w3.org/2000/svg">
<g clip-path="url(#clip0_4245_2906)">
<rect y="2" width="49" height="62" rx="24.5" fill="#F3E9B5"/>
<path d="M8.19294 26.5738L7.8994 26.0774C7.69331 25.73 7.61954 25.3222 7.69121 24.9264C7.76288 24.5306 7.97536 24.1724 8.29078 23.916L8.73108 23.5478C9.05458 23.2984 9.27009 22.9383 9.33443 22.5394L9.43227 21.979C9.50127 21.596 9.69975 21.2471 9.99564 20.9885C10.2915 20.73 10.6676 20.5772 11.063 20.5543L11.65 20.5543C12.0632 20.5657 12.4654 20.4227 12.7752 20.1541L13.2155 19.7859C13.5291 19.5293 13.9244 19.3888 14.3325 19.3888C14.7407 19.3888 15.136 19.5293 15.4496 19.7859M30.1259 36.4033C29.8032 37.0181 29.2568 37.491 28.5951 37.7283C27.9334 37.9656 27.205 37.95 26.5547 37.6842L25.5926 37.332C24.9007 37.0966 24.1482 37.0966 23.4564 37.332L22.4779 37.6842C21.8196 37.9347 21.0918 37.9467 20.4253 37.7178C19.7587 37.4889 19.1972 37.0342 18.8415 36.4354M15.4496 20.106L15.629 19.0972C15.7559 18.3906 16.1332 17.7506 16.6942 17.2907C17.2552 16.8307 17.9638 16.5807 18.6947 16.584L19.7383 16.584C20.4672 16.5811 21.1716 16.3257 21.7278 15.8633L22.5268 15.2071C23.0885 14.7502 23.795 14.5 24.5245 14.5C25.2539 14.5 25.9604 14.7502 26.5221 15.2071L27.3211 15.8633C27.8759 16.3281 28.5813 16.5839 29.3106 16.584L30.3542 16.584C31.0834 16.5869 31.7887 16.8396 32.3484 17.2985C32.9081 17.7574 33.287 18.3933 33.42 19.0972L33.5993 20.106C33.7159 20.8158 34.0929 21.459 34.6593 21.9149L35.442 22.5715C35.8329 22.8856 36.1386 23.2895 36.332 23.7476C36.5255 24.2056 36.6007 24.7034 36.5509 25.1968M12.5143 25.309C12.4424 24.8005 12.5035 24.2824 12.6918 23.8035C12.8801 23.3245 13.1894 22.9007 13.5906 22.5715M14.8136 39.0607C14.8136 39.0607 20.2928 39.0608 20.6189 51.5M23.3748 44.2638C22.7225 38.7726 19.7383 37.3801 19.7383 37.3801M29.49 34.018L29.3758 34.6261C29.3035 35.0459 29.3828 35.4776 29.6002 35.846C29.8176 36.2144 30.1593 36.4962 30.5662 36.6433L31.137 36.8356C31.543 36.991 31.8865 37.272 32.1154 37.6361L32.4089 38.1645C32.6318 38.5287 32.9752 38.8068 33.3818 38.9525C33.7884 39.0982 34.2335 39.1026 34.643 38.965L35.23 38.7567C35.6357 38.6123 36.0801 38.6123 36.4857 38.7567L37.0727 38.965C37.4796 39.1047 37.9233 39.1008 38.3278 38.9548C38.7324 38.8088 39.0727 38.5297 39.2905 38.1645L39.6003 37.6361C39.8183 37.2691 40.1579 36.9865 40.5625 36.8356L41.1495 36.6433C41.5564 36.4962 41.8981 36.2144 42.1155 35.846C42.3329 35.4776 42.4123 35.0459 42.3399 34.6261L42.2258 34.018C42.1448 33.5986 42.2262 33.1647 42.4541 32.8013L42.7476 32.2728C42.9676 31.9059 43.0474 31.474 42.9727 31.0545C42.898 30.6351 42.6737 30.2555 42.3399 29.9836L41.867 29.5994C41.5367 29.3259 41.3169 28.9456 41.2474 28.5269L41.1332 27.9344C41.0572 27.5158 40.8348 27.1366 40.5044 26.8619C40.1739 26.5871 39.7561 26.4342 39.3231 26.4296L38.7035 26.4296C38.2688 26.4343 37.8467 26.2867 37.513 26.0133L37.0401 25.6131C36.7086 25.3408 36.2901 25.1918 35.8579 25.1918C35.4256 25.1918 35.0072 25.3408 34.6756 25.6131L34.2027 26.0133C33.8676 26.2843 33.4464 26.4316 33.0123 26.4296L32.3926 26.4296C31.9587 26.4311 31.5393 26.5827 31.2081 26.858C30.877 27.1332 30.6555 27.5145 30.5825 27.9344L30.4684 28.5269C30.3989 28.9456 30.1791 29.3259 29.8487 29.5994L29.3758 29.9836M40.8071 26.5738L41.1006 26.0774C41.3067 25.73 41.3805 25.3222 41.3088 24.9264C41.2371 24.5306 41.0246 24.1724 40.7092 23.916L40.2689 23.5478C39.9596 23.2865 39.7474 22.9319 39.6656 22.5394L39.5677 21.979C39.5015 21.5948 39.3038 21.2444 39.0074 20.9854C38.7109 20.7264 38.3334 20.5743 37.937 20.5543L37.35 20.5543C36.9424 20.5617 36.5468 20.4189 36.2411 20.1541L35.7845 19.7859C35.4848 19.5204 35.0955 19.3731 34.6919 19.3731C34.2883 19.3731 33.899 19.5204 33.5993 19.7859M34.1864 39.0607C34.1864 39.0607 28.7072 39.0608 28.3974 51.5M25.6252 44.2638C26.2775 38.7726 29.2617 37.3801 29.2617 37.3801M14.3407 25.6131L14.8136 26.0133C15.143 26.2832 15.5587 26.4305 15.9877 26.4296H16.6074C17.0424 26.4335 17.4624 26.5858 17.7956 26.8603C18.1287 27.1348 18.3544 27.5145 18.4338 27.9344L18.5316 28.5269C18.6081 28.9469 18.8334 29.3267 19.1676 29.5994L19.6405 29.9836C19.9715 30.2574 20.1938 30.6367 20.2683 31.0553C20.3429 31.4739 20.2649 31.905 20.0482 32.2728L19.7383 32.8013C19.5232 33.1694 19.4481 33.6006 19.5263 34.018L19.6242 34.6261C19.6998 35.0462 19.6219 35.4792 19.4041 35.8483C19.1863 36.2174 18.8426 36.4988 18.4338 36.6433L17.863 36.8356C17.4585 36.9865 17.1189 37.2691 16.9009 37.6361L16.5911 38.1645C16.3704 38.5309 16.0272 38.8108 15.6198 38.9568C15.2125 39.1027 14.7662 39.1057 14.357 38.965L13.7863 38.7567C13.375 38.6125 12.9256 38.6125 12.5143 38.7567L11.9436 38.965C11.5343 39.1057 11.0881 39.1027 10.6808 38.9568C10.2734 38.8108 9.9302 38.5309 9.70949 38.1645L9.39968 37.6361C9.18168 37.2691 8.84207 36.9865 8.43754 36.8356L7.85049 36.6433C7.4447 36.4959 7.10469 36.2132 6.89002 35.8444C6.67535 35.4756 6.59971 35.0442 6.67638 34.6261L6.77424 34.018C6.85248 33.6006 6.77736 33.1694 6.56224 32.8013L6.2524 32.2728C6.0324 31.9059 5.9526 31.474 6.02729 31.0545C6.10199 30.6351 6.3263 30.2555 6.66008 29.9836L7.133 29.5994C7.46199 29.3224 7.68608 28.9446 7.76897 28.5269L7.86681 27.9344C7.94622 27.5145 8.17184 27.1348 8.50502 26.8603C8.83821 26.5858 9.25823 26.4335 9.69319 26.4296H10.3129C10.7419 26.4305 11.1576 26.2832 11.487 26.0133L11.9599 25.6131C12.2954 25.3425 12.7161 25.1945 13.1503 25.1945C13.5845 25.1945 14.0052 25.3425 14.3407 25.6131Z" stroke="#4CAF50" stroke-linecap="round" stroke-linejoin="round"/>
</g>
<defs>
<clipPath id="clip0_4245_2906">
<rect width="79" height="49" fill="white" transform="translate(49 2.1286e-06) rotate(90)"/>
</clipPath>
</defs>
</svg>
