<svg width="25" height="24" viewBox="0 0 25 24" fill="none" xmlns="http://www.w3.org/2000/svg">
<path d="M6.25 2L3.125 6V20C3.125 20.5304 3.34449 21.0391 3.73519 21.4142C4.12589 21.7893 4.6558 22 5.20833 22H19.7917C20.3442 22 20.8741 21.7893 21.2648 21.4142C21.6555 21.0391 21.875 20.5304 21.875 20V6L18.75 2H6.25Z" stroke="white" stroke-linecap="round" stroke-linejoin="round"/>
<path d="M3.125 6H21.875" stroke="white" stroke-linecap="round" stroke-linejoin="round"/>
<path d="M16.6668 10C16.6668 11.0609 16.2278 12.0783 15.4464 12.8284C14.665 13.5786 13.6052 14 12.5002 14C11.3951 14 10.3353 13.5786 9.55388 12.8284C8.77248 12.0783 8.3335 11.0609 8.3335 10" stroke="white" stroke-linecap="round" stroke-linejoin="round"/>
</svg>
