<svg width="41" height="41" viewBox="0 0 41 41" fill="none" xmlns="http://www.w3.org/2000/svg">
<rect y="0.325195" width="40.2987" height="40.2987" rx="12.9996" fill="#F8F8F8"/>
<path d="M20.1555 10.8786C20.1555 10.8786 19.5967 11.343 19.0186 12.1703M17.7884 16.5628C17.5976 14.6903 18.3221 13.1669 19.0186 12.1703M19.0186 12.1703C19.6893 11.2139 20.5219 10.4735 21.3734 9.91023M21.3734 9.91023C22.8727 8.91854 24.4307 8.47578 25.267 8.36936C26.2448 8.33048 27.2203 8.49038 28.1345 8.83931C29.0487 9.18824 29.8826 9.71896 30.5858 10.3994C33.6269 13.3796 34.0734 18.9988 31.3247 22.3159C28.576 25.6331 24.0694 27.1029 21.2963 30.4768C20.847 31.0136 20.4639 31.6024 20.1554 32.2308C19.8482 31.6026 19.4666 31.0137 19.0186 30.4768C16.2415 27.1029 11.763 25.6656 8.98584 22.3159C6.20871 18.9663 6.68387 13.3836 9.72491 10.3994C11.3541 8.45059 15.0802 5.92931 21.3734 9.91023Z" stroke="#4CAF50" stroke-width="1.29996" stroke-linecap="round" stroke-linejoin="round"/>
</svg>
