<svg width="41" height="41" viewBox="0 0 41 41" fill="none" xmlns="http://www.w3.org/2000/svg">
<rect y="0.325195" width="40.2987" height="40.2987" rx="12.9996" fill="#F8F8F8"/>
<path d="M15.5462 17.8554V11.9181C15.55 10.6554 16.0529 9.44522 16.9454 8.55186C17.8378 7.65851 19.0475 7.15437 20.3103 7.14941C21.5738 7.15313 22.7845 7.65677 23.678 8.55026C24.5715 9.44375 25.0751 10.6545 25.0789 11.9181V17.8554M31.4996 28.3783L30.0634 17.7428C29.9274 16.8659 29.4782 16.0679 28.7991 15.4966C28.1199 14.9254 27.2568 14.6195 26.3695 14.6356H14.2555C13.3682 14.6195 12.5051 14.9254 11.826 15.4966C11.1469 16.0679 10.6978 16.8659 10.5617 17.7428L9.12547 28.3783C9.05822 28.9887 9.12252 29.6063 9.31397 30.1898C9.50541 30.7732 9.81958 31.3088 10.2354 31.7606C10.6512 32.2125 11.1589 32.5699 11.7244 32.809C12.29 33.0482 12.9002 33.1635 13.514 33.1471H27.1253C27.7379 33.1614 28.3465 33.0447 28.9103 32.8047C29.4741 32.5646 29.9801 32.2067 30.3944 31.7551C30.8086 31.3036 31.1215 30.7687 31.3121 30.1863C31.5027 29.6039 31.5666 28.9875 31.4996 28.3783Z" stroke="#4CAF50" stroke-width="1.29996" stroke-linecap="round" stroke-linejoin="round"/>
</svg>
