<svg width="41" height="41" viewBox="0 0 41 41" fill="none" xmlns="http://www.w3.org/2000/svg">
<rect y="0.325195" width="40.2987" height="40.2987" rx="12.9996" fill="#F8F8F8"/>
<path d="M25.0464 19.2025C24.8723 21.4344 24.2368 24.0389 23.8037 26.2468C23.5325 27.6692 23.1156 29.0997 23.2532 30.5423C23.3544 31.6522 23.9171 33.1348 25.771 33.1468C26.2594 33.1632 26.7428 33.0453 27.1675 32.8062C27.5881 32.5125 27.8996 32.0902 28.054 31.6041C28.283 30.933 28.3658 30.2215 28.2969 29.5165C28.177 28.4175 27.9891 27.3269 27.7342 26.2508C27.3294 24.0429 26.6656 21.4223 26.4915 19.1904M13.2752 19.7354C13.1052 21.9112 12.4657 24.2673 12.0609 26.4231C11.7937 27.8095 11.3849 29.1999 11.5184 30.6064C11.6196 31.6883 12.1701 33.1348 13.9876 33.1468C14.4674 33.1646 14.9427 33.0494 15.3599 32.8142C15.7731 32.5289 16.0792 32.116 16.2302 31.6402C16.4556 30.9863 16.537 30.2922 16.469 29.6046C16.3522 28.5336 16.1669 27.4709 15.9144 26.4231C15.5096 24.2673 14.866 21.9112 14.7001 19.7354M9.74951 8.07102V15.6042C9.75271 16.7152 10.1997 17.7798 10.9929 18.5658C11.7862 19.3518 12.8613 19.7953 13.9836 19.7995C15.1066 19.7963 16.1827 19.3533 16.9769 18.5672C17.771 17.7811 18.2185 16.7159 18.2217 15.6042V8.07102M12.5668 8.07102V13.3923M15.457 8.07102V13.3923M30.1103 13.208C30.1103 16.5541 28.1675 19.2666 25.771 19.2666C23.3745 19.2666 21.4317 16.5541 21.4317 13.208C21.4317 9.86193 23.3745 7.14941 25.771 7.14941C28.1675 7.14941 30.1103 9.86193 30.1103 13.208Z" stroke="#4CAF50" stroke-width="1.29996" stroke-linecap="round" stroke-linejoin="round"/>
</svg>
